<?xml version="1.0" encoding="UTF-8" standalone="no"?>
<svg
   viewBox="0.28693719625473024 0.37417461395263674 0.178082070350647 0.178082070350647"
   width="1in"
   height="1.0000001in"
   version="1.1"
   id="svg245"
   sodipodi:docname="d12_Working.svg"
   inkscape:export-xdpi="1200"
   inkscape:export-ydpi="1200"
   inkscape:version="1.4 (86a8ad7, 2024-10-11)"
   xml:space="preserve"
   xmlns:inkscape="http://www.inkscape.org/namespaces/inkscape"
   xmlns:sodipodi="http://sodipodi.sourceforge.net/DTD/sodipodi-0.dtd"
   xmlns:xlink="http://www.w3.org/1999/xlink"
   xmlns="http://www.w3.org/2000/svg"
   xmlns:svg="http://www.w3.org/2000/svg"><defs></defs><g
     id="g301"
     inkscape:label="09 NOISE"
     style="display:inline"
     transform="matrix(0.00563766,0,0,0.00563766,0.00282,-5.3312001)"><path
       d="m 56.754902,1024.195 h 4.223129 v 7.2202 h -4.223129 a 0.688976,0.688976 0 0 1 -0.688976,-0.689 v -5.8422 a 0.688976,0.688976 0 0 1 0.688976,-0.689 z"
       style="fill:none;stroke:#000000"
       id="path287" /><path
       d="m 60.978031,1024.195 4.70993,-4.2178 a 0.688976,0.688976 0 0 1 1.148604,0.5132 v 14.6293 a 0.688976,0.688976 0 0 1 -1.148604,0.5133 l -4.70993,-4.2178"
       style="fill:none;stroke:#000000"
       id="path288" /><path
       d="m 71.902873,1018.9443 a 11.10422,11.10422 0 0 1 0,17.7216"
       style="fill:none;stroke:#000000"
       id="path289" /><path
       d="m 70.116047,1021.31 a 8.139515,8.139515 0 0 1 0,12.9902"
       style="fill:none;stroke:#000000"
       id="path290" /><path
       d="m 68.438791,1023.5307 a 5.35661,5.35661 0 0 1 0,8.5488"
       style="fill:none;stroke:#000000"
       id="path291" /></g></svg>