<?xml version="1.0" encoding="UTF-8" standalone="no"?>
<svg
   viewBox="0.03457899987697602 0.617784621566534 0.19145965129137038 0.19145965129137038"
   width="1in"
   height="1.0000001in"
   version="1.1"
   id="svg245"
   sodipodi:docname="d12_Working.svg"
   inkscape:export-xdpi="1200"
   inkscape:export-ydpi="1200"
   inkscape:version="1.4 (86a8ad7, 2024-10-11)"
   xml:space="preserve"
   xmlns:inkscape="http://www.inkscape.org/namespaces/inkscape"
   xmlns:sodipodi="http://sodipodi.sourceforge.net/DTD/sodipodi-0.dtd"
   xmlns:xlink="http://www.w3.org/1999/xlink"
   xmlns="http://www.w3.org/2000/svg"
   xmlns:svg="http://www.w3.org/2000/svg"><defs><path
       d="M 831.86 230.73 C 821.78 245.86 810.77 260.40 800.23 275.21 C 795.50 282.14 790.55 288.91 785.78 295.81 C 759.53 332.12 734.09 369.10 708.28 405.71 C 707.09 400.34 706.39 394.87 705.35 389.47 C 702.51 369.75 699.27 350.08 696.64 330.33 C 658.25 363.81 619.32 396.77 579.43 428.44 C 573.86 432.47 568.77 437.16 563.00 440.85 C 575.70 424.72 589.31 409.23 602.47 393.47 C 613.32 380.68 624.47 368.15 635.41 355.43 C 648.99 340.65 661.78 325.12 675.19 310.17 C 688.35 294.95 701.78 280.01 714.72 264.59 C 717.70 283.74 720.30 302.94 723.22 322.09 C 727.50 318.05 732.14 314.45 736.33 310.31 C 765.05 285.75 793.94 261.04 823.53 237.54 C 826.36 235.31 828.83 232.72 831.86 230.73 Z"
       id="p2-24" /><path
       d="M 790.31 424.55 C 787.78 429.59 785.54 434.74 782.77 439.65 C 774.76 455.47 766.76 471.46 758.79 487.33 C 766.82 485.99 774.90 485.20 782.96 484.13 C 819.68 479.37 856.30 473.90 893.02 469.24 C 899.30 468.64 905.42 467.53 911.77 467.76 C 880.95 479.84 850.11 492.01 819.35 504.24 C 780.00 519.67 740.69 535.23 701.43 550.86 C 706.29 537.75 711.54 524.78 716.82 511.84 C 721.97 499.52 726.37 486.88 731.89 474.73 C 684.64 482.26 637.31 489.86 589.83 495.75 C 582.95 496.52 576.11 497.83 569.20 498.29 C 573.51 496.23 577.98 494.93 582.46 493.33 C 597.93 487.65 613.51 482.21 629.15 477.04 C 647.56 470.83 666.00 464.57 684.50 458.69 C 711.15 449.71 737.89 441.07 764.62 432.34 C 773.13 429.64 781.62 426.64 790.31 424.55 Z"
       id="p5-7" /><path
       d="M 563.44 553.30 C 579.96 563.45 596.18 574.01 612.43 584.60 C 641.39 604.22 670.54 623.67 698.64 644.51 C 699.39 632.63 701.21 620.84 702.21 608.98 C 702.97 602.20 704.00 595.39 704.17 588.56 C 714.40 601.05 725.61 612.67 736.06 624.97 C 773.58 667.32 811.45 710.02 847.88 753.31 C 838.04 746.04 827.94 739.15 818.17 731.79 C 800.91 719.48 784.11 706.47 767.08 693.87 C 752.63 683.29 738.21 672.71 723.93 661.89 C 722.43 680.17 719.51 698.35 718.54 716.66 C 711.55 708.55 703.60 701.48 696.47 693.51 C 688.92 685.07 680.60 677.40 673.01 668.99 C 664.39 659.63 655.15 650.86 646.58 641.45 C 640.07 634.27 632.95 627.74 626.62 620.40 C 617.57 611.12 608.38 601.95 599.64 592.37 C 593.72 585.92 587.24 580.13 581.60 573.43 C 575.50 566.83 568.89 560.46 563.44 553.30 Z"
       id="p6-11" /></defs><g
     id="g301-6-8"
     inkscape:label="10 NOISE SPIKE"
     style="display:inline"
     transform="matrix(0.00563766,0,0,0.00563766,-0.24713707,-5.0809012)"><path
       d="m 56.754902,1024.195 h 4.223129 v 7.2202 h -4.223129 a 0.688976,0.688976 0 0 1 -0.688976,-0.689 v -5.8422 a 0.688976,0.688976 0 0 1 0.688976,-0.689 z"
       style="fill:none;stroke:#000000"
       id="path287-1-6" /><path
       d="m 60.978031,1024.195 4.70993,-4.2178 a 0.688976,0.688976 0 0 1 1.148604,0.5132 v 14.6293 a 0.688976,0.688976 0 0 1 -1.148604,0.5133 l -4.70993,-4.2178"
       style="fill:none;stroke:#000000"
       id="path288-4-5" /><use
       fill="#010101"
       xlink:href="#p2-24"
       id="use10-5-1-0"
       style="display:inline"
       transform="matrix(0.02780581,0,0,0.02780581,52.483192,1014.1931)" /><use
       fill="#010101"
       xlink:href="#p5-7"
       id="use13-6-9"
       style="display:inline"
       transform="matrix(0.02780581,0,0,0.02780581,52.483192,1014.1931)" /><use
       fill="#010101"
       xlink:href="#p6-11"
       id="use14-2-8-0"
       style="display:inline"
       transform="matrix(0.02780581,0,0,0.02780581,52.483192,1014.1931)" /></g></svg>